<?xml version="1.0" standalone="no"?>
<!DOCTYPE svg PUBLIC "-//W3C//DTD SVG 20010904//EN"
 "http://www.w3.org/TR/2001/REC-SVG-20010904/DTD/svg10.dtd">
<svg version="1.0" xmlns="http://www.w3.org/2000/svg"
 width="980.000000pt" height="708.000000pt" viewBox="0 0 980.000000 708.000000"
 preserveAspectRatio="xMidYMid meet">

<g transform="translate(0.000000,708.000000) scale(0.100000,-0.100000)"
fill="white" stroke="none">
<path d="M4360 7069 c-120 -24 -246 -125 -303 -246 -30 -64 -32 -74 -32 -183
0 -105 2 -120 28 -175 15 -32 39 -74 53 -92 l25 -34 -75 -87 c-42 -48 -849
-972 -1794 -2054 -1690 -1936 -1717 -1967 -1747 -1960 -16 4 -70 7 -120 7 -80
0 -97 -3 -157 -32 -124 -58 -207 -169 -231 -306 -29 -174 70 -360 233 -435 71
-34 201 -42 281 -19 89 26 189 108 237 193 7 13 258 -45 1636 -374 895 -215
1629 -391 1631 -394 2 -2 0 -35 -6 -73 -29 -203 59 -444 218 -598 93 -91 174
-138 303 -178 60 -19 98 -23 190 -23 137 -1 209 16 330 76 68 34 103 60 175
133 96 96 143 170 185 295 30 87 38 278 17 368 -14 62 -14 64 7 72 18 7 1421
587 2204 911 145 60 267 109 272 109 5 0 22 -11 38 -25 17 -14 57 -38 89 -53
51 -23 70 -27 153 -27 82 0 103 4 152 27 159 74 258 255 230 418 -15 85 -51
158 -105 215 l-46 48 203 996 c187 915 205 996 222 993 10 -2 74 -6 141 -9
152 -7 241 11 368 72 199 97 344 271 407 491 29 103 32 304 4 403 -89 325
-369 558 -693 578 -338 21 -644 -177 -765 -494 -17 -46 -35 -83 -40 -83 -8 0
-853 279 -2710 896 -442 147 -678 230 -682 240 -3 9 -6 29 -6 44 0 16 -10 55
-21 87 -78 209 -282 325 -499 282z m2220 -1097 l1685 -558 1 -91 c2 -61 -2
-93 -9 -96 -7 -3 -419 -170 -917 -372 -498 -202 -926 -376 -952 -386 l-47 -18
-773 945 c-425 520 -774 949 -776 954 -2 4 10 30 26 57 16 26 36 65 43 86 7
20 18 37 24 37 5 0 768 -251 1695 -558z m-1107 -622 c418 -511 758 -932 757
-937 -1 -6 -1466 -608 -1530 -628 -14 -4 -20 124 -58 1118 -24 617 -46 1165
-49 1218 l-6 96 54 30 c30 17 59 31 64 31 6 1 351 -417 768 -928z m-1558 -401
c-162 -716 -297 -1304 -298 -1306 -2 -1 -38 5 -82 13 -62 13 -91 14 -142 6
-236 -39 -385 -228 -371 -470 l5 -88 -251 -101 c-138 -56 -669 -271 -1180
-478 -834 -338 -930 -375 -944 -361 -14 13 -13 18 9 45 78 99 3545 4057 3547
4050 2 -4 -130 -594 -293 -1310z m483 1254 c28 -3 52 -8 52 -10 0 -27 90
-2321 94 -2384 l5 -87 -348 -141 c-191 -77 -352 -141 -359 -141 -6 0 -17 10
-23 22 -7 12 -34 45 -60 73 l-48 51 294 1294 c162 712 297 1306 300 1318 4 18
10 22 23 17 9 -4 41 -9 70 -12z m3902 -1118 c0 -8 24 -61 53 -118 l53 -102
-626 -690 c-345 -380 -632 -690 -638 -690 -15 0 -714 853 -704 859 4 2 329
135 722 294 393 160 807 329 920 375 113 47 208 85 213 86 4 0 7 -6 7 -14z
m233 -351 c53 -47 174 -124 196 -124 8 0 12 -8 9 -22 -3 -13 -94 -461 -203
-996 -170 -833 -201 -972 -214 -966 -9 4 -56 9 -106 11 -105 6 -172 -14 -248
-72 -25 -19 -48 -35 -51 -35 -7 0 -701 850 -701 859 0 10 1253 1391 1261 1391
4 0 29 -21 57 -46z m-1837 -882 c196 -240 361 -442 366 -449 6 -7 -284 -334
-903 -1015 -501 -551 -928 -1020 -948 -1041 l-37 -38 -55 36 c-69 46 -185 90
-274 104 l-70 12 -43 1086 c-23 598 -41 1088 -39 1089 11 10 1633 661 1639
658 4 -3 168 -202 364 -442z m-2101 -1337 c19 -533 37 -991 39 -1016 l5 -45
-72 -18 c-40 -10 -80 -19 -90 -19 -15 -2 -87 142 -371 743 l-352 745 34 45
c69 89 111 226 97 315 l-6 41 333 136 333 135 7 -46 c4 -25 23 -482 43 -1016z
m2901 358 l357 -436 -19 -51 c-27 -71 -25 -202 3 -274 12 -28 18 -54 15 -56
-19 -11 -2464 -1017 -2466 -1014 -1 2 -15 26 -31 53 -15 28 -45 71 -66 96
l-38 46 942 1037 c517 570 942 1036 944 1036 1 0 163 -196 359 -437z m-4365
58 c125 -132 296 -174 464 -116 53 18 72 21 78 12 5 -7 163 -338 352 -737
l344 -725 -32 -24 c-18 -14 -69 -62 -113 -107 -64 -64 -91 -101 -125 -168 -31
-64 -47 -85 -58 -82 -9 3 -320 78 -691 166 -371 89 -720 172 -775 185 -536
129 -1325 317 -1510 361 -126 30 -237 57 -246 59 -13 4 -16 21 -16 88 0 59 -6
97 -22 137 -11 30 -17 57 -13 61 4 4 437 181 962 395 525 213 1041 422 1145
465 105 42 194 78 200 78 5 1 30 -21 56 -48z"/>
</g>
</svg>
